<svg width="456" height="54" viewBox="0 0 456 54" fill="none" xmlns="http://www.w3.org/2000/svg">
<g clip-path="url(#clip0_24_55)">
<path d="M102.76 21.8111H93.8821C93.7637 20.8996 93.5211 20.0769 93.1541 19.343C92.7872 18.6091 92.3018 17.9818 91.6982 17.4609C91.0945 16.9401 90.3783 16.5436 89.5497 16.2713C88.733 15.9872 87.8274 15.8452 86.8331 15.8452C85.0694 15.8452 83.5483 16.2772 82.2699 17.1413C81.0033 18.0054 80.0268 19.2543 79.3402 20.8878C78.6655 22.5213 78.3281 24.4981 78.3281 26.8182C78.3281 29.233 78.6714 31.2571 79.358 32.8906C80.0563 34.5123 81.0329 35.7375 82.2876 36.5661C83.5542 37.3828 85.0516 37.7912 86.7798 37.7912C87.7505 37.7912 88.6323 37.6669 89.4254 37.4183C90.2304 37.1697 90.9347 36.8087 91.5384 36.3352C92.1539 35.8499 92.657 35.264 93.0476 34.5774C93.45 33.879 93.7282 33.0919 93.8821 32.2159L102.76 32.2692C102.606 33.879 102.138 35.4652 101.357 37.0277C100.588 38.5902 99.5284 40.0166 98.179 41.3068C96.8295 42.5852 95.1842 43.6032 93.2429 44.3608C91.3134 45.1184 89.0999 45.4972 86.6023 45.4972C83.3116 45.4972 80.3641 44.7751 77.7599 43.331C75.1676 41.875 73.1198 39.7562 71.6165 36.9744C70.1132 34.1927 69.3615 30.8073 69.3615 26.8182C69.3615 22.8172 70.125 19.4259 71.652 16.6442C73.179 13.8625 75.2446 11.7495 77.8487 10.3054C80.4529 8.86127 83.3707 8.1392 86.6023 8.1392C88.804 8.1392 90.84 8.44697 92.7102 9.0625C94.5805 9.66619 96.2259 10.554 97.6463 11.7259C99.0668 12.8859 100.221 14.3123 101.109 16.005C101.996 17.6977 102.547 19.633 102.76 21.8111ZM142.111 26.8182C142.111 30.8191 141.342 34.2105 139.803 36.9922C138.264 39.7739 136.181 41.8868 133.553 43.331C130.937 44.7751 128.001 45.4972 124.746 45.4972C121.479 45.4972 118.537 44.7692 115.921 43.3132C113.305 41.8572 111.228 39.7443 109.689 36.9744C108.162 34.1927 107.399 30.8073 107.399 26.8182C107.399 22.8172 108.162 19.4259 109.689 16.6442C111.228 13.8625 113.305 11.7495 115.921 10.3054C118.537 8.86127 121.479 8.1392 124.746 8.1392C128.001 8.1392 130.937 8.86127 133.553 10.3054C136.181 11.7495 138.264 13.8625 139.803 16.6442C141.342 19.4259 142.111 22.8172 142.111 26.8182ZM133.127 26.8182C133.127 24.4508 132.789 22.4503 132.115 20.8168C131.452 19.1832 130.493 17.9463 129.238 17.1058C127.995 16.2654 126.498 15.8452 124.746 15.8452C123.006 15.8452 121.508 16.2654 120.254 17.1058C118.999 17.9463 118.034 19.1832 117.36 20.8168C116.697 22.4503 116.365 24.4508 116.365 26.8182C116.365 29.1856 116.697 31.1861 117.36 32.8196C118.034 34.4531 118.999 35.6901 120.254 36.5305C121.508 37.371 123.006 37.7912 124.746 37.7912C126.498 37.7912 127.995 37.371 129.238 36.5305C130.493 35.6901 131.452 34.4531 132.115 32.8196C132.789 31.1861 133.127 29.1856 133.127 26.8182ZM160.683 45H147.242V8.63636H160.666C164.371 8.63636 167.561 9.36435 170.236 10.8203C172.923 12.2644 174.994 14.3478 176.45 17.0703C177.906 19.781 178.634 23.0244 178.634 26.8004C178.634 30.5883 177.906 33.8435 176.45 36.5661C175.006 39.2886 172.941 41.3778 170.254 42.8338C167.567 44.2779 164.377 45 160.683 45ZM156.031 37.5071H160.346C162.382 37.5071 164.104 37.1638 165.513 36.4773C166.933 35.7789 168.005 34.6484 168.727 33.0859C169.461 31.5116 169.828 29.4164 169.828 26.8004C169.828 24.1844 169.461 22.1011 168.727 20.5504C167.993 18.9879 166.91 17.8634 165.477 17.1768C164.057 16.4785 162.305 16.1293 160.222 16.1293H156.031V37.5071ZM183.766 45V8.63636H209.121V15.7741H192.555V23.2315H207.825V30.3871H192.555V37.8622H209.121V45H183.766Z" fill="#6A2793"/>
<path d="M251.599 20H250.392C250.167 18.7926 249.729 17.5616 249.078 16.3068C248.427 15.0521 247.563 13.892 246.486 12.8267C245.409 11.7614 244.136 10.9032 242.668 10.2521C241.201 9.60109 239.537 9.27557 237.679 9.27557C235.193 9.27557 232.891 9.9562 230.772 11.3175C228.665 12.6669 226.966 14.6496 225.676 17.2656C224.398 19.8698 223.759 23.054 223.759 26.8182C223.759 30.6297 224.398 33.8376 225.676 36.4418C226.966 39.0459 228.665 41.0168 230.772 42.3544C232.891 43.692 235.193 44.3608 237.679 44.3608C239.537 44.3608 241.201 44.0412 242.668 43.402C244.136 42.7509 245.409 41.8987 246.486 40.8452C247.563 39.7798 248.427 38.6198 249.078 37.3651C249.729 36.0985 250.167 34.8556 250.392 33.6364H251.599C251.375 34.9148 250.925 36.2464 250.25 37.6314C249.575 39.0045 248.664 40.2888 247.516 41.4844C246.367 42.6799 244.977 43.6506 243.343 44.3963C241.71 45.1302 239.821 45.4972 237.679 45.4972C234.696 45.4972 232.074 44.7159 229.813 43.1534C227.552 41.5909 225.789 39.407 224.522 36.6016C223.255 33.7962 222.622 30.535 222.622 26.8182C222.622 23.1013 223.255 19.8402 224.522 17.0348C225.789 14.2294 227.552 12.0455 229.813 10.483C232.074 8.92045 234.696 8.1392 237.679 8.1392C239.821 8.1392 241.71 8.50615 243.343 9.24006C244.977 9.97396 246.367 10.9387 247.516 12.1342C248.664 13.3179 249.575 14.6023 250.25 15.9872C250.925 17.3603 251.375 18.6979 251.599 20ZM257.974 45H256.766L269.763 8.63636H271.326L284.323 45H283.116L270.616 10.0568H270.474L257.974 45ZM262.093 31.5767H278.996V32.7131H262.093V31.5767ZM284.749 9.77273V8.63636H309.323V9.77273H297.604V45H296.468V9.77273H284.749ZM310.952 45H309.745L322.742 8.63636H324.305L337.302 45H336.094L323.594 10.0568H323.452L310.952 45ZM315.072 31.5767H331.975V32.7131H315.072V31.5767ZM344.604 45V8.63636H345.74V43.8636H363.922V45H344.604ZM367.042 8.63636H368.463L380.608 26.4631H380.75L392.895 8.63636H394.315L381.247 27.7415V45H380.111V27.7415L367.042 8.63636ZM421.144 17.7273C420.966 15.2415 420.014 13.1996 418.285 11.6016C416.569 10.0036 414.302 9.20454 411.485 9.20454C409.638 9.20454 407.987 9.55966 406.531 10.2699C405.075 10.9801 403.927 11.9567 403.086 13.1996C402.246 14.4306 401.826 15.8452 401.826 17.4432C401.826 18.3665 401.98 19.2188 402.287 20C402.595 20.7812 403.063 21.4974 403.69 22.1484C404.329 22.7876 405.128 23.3677 406.087 23.8885C407.058 24.3975 408.194 24.8532 409.496 25.2557L413.616 26.5341C415.19 27.0194 416.551 27.5639 417.699 28.1676C418.848 28.7713 419.795 29.4519 420.54 30.2095C421.298 30.9553 421.86 31.7898 422.227 32.7131C422.594 33.6245 422.778 34.6425 422.778 35.767C422.778 37.661 422.292 39.3478 421.322 40.8274C420.351 42.3071 418.996 43.4671 417.256 44.3075C415.515 45.148 413.497 45.5682 411.201 45.5682C408.987 45.5682 407.052 45.1835 405.395 44.4141C403.738 43.6328 402.424 42.5616 401.453 41.2003C400.494 39.8272 399.956 38.2528 399.837 36.4773H400.974C401.092 38.0398 401.583 39.4188 402.447 40.6143C403.311 41.8099 404.483 42.745 405.963 43.4197C407.454 44.0945 409.2 44.4318 411.201 44.4318C413.284 44.4318 415.107 44.0708 416.67 43.3487C418.244 42.6148 419.463 41.5968 420.327 40.2947C421.203 38.9927 421.641 37.4834 421.641 35.767C421.641 34.465 421.357 33.3227 420.789 32.3402C420.221 31.3459 419.327 30.4699 418.108 29.7124C416.889 28.9548 415.296 28.2741 413.331 27.6705L409.212 26.392C406.359 25.4924 404.223 24.3028 402.802 22.8232C401.394 21.3435 400.689 19.5502 400.689 17.4432C400.689 15.6558 401.157 14.0578 402.092 12.6491C403.027 11.2287 404.306 10.1101 405.927 9.29332C407.561 8.47656 409.413 8.06818 411.485 8.06818C413.568 8.06818 415.397 8.48248 416.971 9.31108C418.546 10.1397 419.795 11.282 420.718 12.7379C421.641 14.1939 422.162 15.857 422.28 17.7273H421.144ZM429.671 9.77273V8.63636H454.245V9.77273H442.526V45H441.39V9.77273H429.671Z" fill="black"/>
<path d="M0 15C0 6.71573 6.71573 0 15 0H32C45.8071 0 57 11.1929 57 25V54H25C11.1929 54 0 42.8071 0 29V15Z" fill="#6A2793" fill-opacity="0.84"/>
<path d="M41.0625 36.5C40.5335 36.5024 40.0119 36.6242 39.5366 36.8563L34.4303 31.75H30.375V34.125H33.4459L37.8574 38.5366C37.6252 39.0119 37.5031 39.5335 37.5 40.0625C37.5 40.7671 37.7089 41.4559 38.1004 42.0417C38.4918 42.6276 39.0482 43.0842 39.6992 43.3538C40.3502 43.6235 41.0665 43.694 41.7575 43.5566C42.4486 43.4191 43.0833 43.0798 43.5816 42.5816C44.0798 42.0833 44.4191 41.4486 44.5565 40.7575C44.694 40.0665 44.6235 39.3502 44.3538 38.6992C44.0842 38.0482 43.6276 37.4918 43.0417 37.1004C42.4559 36.7089 41.7671 36.5 41.0625 36.5ZM41.0625 41.25C40.8276 41.25 40.598 41.1804 40.4028 41.0499C40.2075 40.9194 40.0553 40.7339 39.9654 40.5169C39.8755 40.3 39.852 40.0612 39.8978 39.8308C39.9436 39.6005 40.0567 39.3889 40.2228 39.2228C40.3889 39.0567 40.6005 38.9436 40.8308 38.8978C41.0612 38.852 41.2999 38.8755 41.5169 38.9654C41.7339 39.0553 41.9194 39.2075 42.0499 39.4028C42.1804 39.598 42.25 39.8276 42.25 40.0625C42.25 40.3774 42.1249 40.6795 41.9022 40.9022C41.6795 41.1249 41.3774 41.25 41.0625 41.25ZM41.0625 23.4375C40.3281 23.4397 39.6124 23.6692 39.0137 24.0944C38.4149 24.5196 37.9625 25.1198 37.7185 25.8125H30.375V28.1875H37.7185C37.9373 28.8016 38.3206 29.3438 38.8267 29.7548C39.3328 30.1658 39.9421 30.4298 40.588 30.518C41.234 30.6061 41.8918 30.515 42.4894 30.2546C43.0871 29.9942 43.6017 29.5745 43.977 29.0414C44.3523 28.5083 44.5739 27.8823 44.6175 27.2318C44.661 26.5814 44.525 25.9314 44.2242 25.353C43.9234 24.7746 43.4694 24.29 42.9118 23.9522C42.3542 23.6144 41.7144 23.4363 41.0625 23.4375ZM41.0625 28.1875C40.8276 28.1875 40.598 28.1179 40.4028 27.9874C40.2075 27.8569 40.0553 27.6714 39.9654 27.4544C39.8755 27.2374 39.852 26.9987 39.8978 26.7683C39.9436 26.538 40.0567 26.3264 40.2228 26.1603C40.3889 25.9942 40.6005 25.8811 40.8308 25.8353C41.0612 25.7895 41.2999 25.813 41.5169 25.9029C41.7339 25.9928 41.9194 26.145 42.0499 26.3403C42.1804 26.5355 42.25 26.7651 42.25 27C42.25 27.3149 42.1249 27.617 41.9022 27.8397C41.6795 28.0624 41.3774 28.1875 41.0625 28.1875ZM41.0625 10.375C40.118 10.3759 39.2124 10.7516 38.5445 11.4195C37.8766 12.0874 37.5009 12.993 37.5 13.9375C37.5041 14.5064 37.6458 15.0658 37.9132 15.5679L33.4578 19.875H30.375V22.25H34.4172L39.6423 17.2008C40.1276 17.4124 40.6541 17.5132 41.1833 17.4957C41.7125 17.4782 42.2312 17.3429 42.7015 17.0997C43.1719 16.8565 43.5821 16.5115 43.9022 16.0898C44.2224 15.668 44.4445 15.1802 44.5524 14.6618C44.6603 14.1434 44.6512 13.6074 44.5258 13.093C44.4004 12.5786 44.1619 12.0985 43.8276 11.6879C43.4933 11.2773 43.0716 10.9463 42.5933 10.7192C42.115 10.4921 41.592 10.3745 41.0625 10.375ZM41.0625 15.125C40.8276 15.125 40.598 15.0554 40.4028 14.9249C40.2075 14.7944 40.0553 14.6089 39.9654 14.3919C39.8755 14.175 39.852 13.9362 39.8978 13.7058C39.9436 13.4755 40.0567 13.2639 40.2228 13.0978C40.3889 12.9317 40.6005 12.8186 40.8308 12.7728C41.0612 12.727 41.2999 12.7505 41.5169 12.8404C41.7339 12.9303 41.9194 13.0825 42.0499 13.2778C42.1804 13.473 42.25 13.7026 42.25 13.9375C42.25 14.2524 42.1249 14.5545 41.9022 14.7772C41.6795 14.9999 41.3774 15.125 41.0625 15.125Z" fill="#F2E7E7"/>
<path d="M30.375 15.125H32.75V12.75H30.375C29.6983 12.7523 29.0299 12.9 28.4153 13.1831C27.8006 13.4663 27.254 13.8782 26.8125 14.3911C26.371 13.8782 25.8244 13.4663 25.2097 13.1831C24.5951 12.9 23.9267 12.7523 23.25 12.75H22.0625C19.229 12.7531 16.5124 13.8802 14.5088 15.8838C12.5052 17.8874 11.3781 20.604 11.375 23.4375V30.5625C11.3781 33.396 12.5052 36.1126 14.5088 38.1162C16.5124 40.1198 19.229 41.2469 22.0625 41.25H23.25C23.9267 41.2477 24.5951 41.1 25.2097 40.8169C25.8244 40.5337 26.371 40.1218 26.8125 39.6089C27.254 40.1218 27.8006 40.5337 28.4153 40.8169C29.0299 41.1 29.6983 41.2477 30.375 41.25H32.75V38.875H30.375C29.7453 38.8744 29.1416 38.6239 28.6963 38.1787C28.2511 37.7334 28.0006 37.1297 28 36.5V17.5C28.0006 16.8703 28.2511 16.2666 28.6963 15.8213C29.1416 15.3761 29.7453 15.1256 30.375 15.125ZM23.25 38.875H22.0625C20.0656 38.8714 18.1367 38.1497 16.628 36.8415C15.1193 35.5334 14.1315 33.7262 13.845 31.75H16.125V29.375H13.75V24.625H17.3125C18.257 24.6241 19.1626 24.2484 19.8305 23.5805C20.4984 22.9126 20.8741 22.007 20.875 21.0625V18.6875H18.5V21.0625C18.5 21.3774 18.3749 21.6795 18.1522 21.9022C17.9295 22.1249 17.6274 22.25 17.3125 22.25H13.845C14.1315 20.2738 15.1193 18.4666 16.628 17.1585C18.1367 15.8503 20.0656 15.1286 22.0625 15.125H23.25C23.8797 15.1256 24.4834 15.3761 24.9287 15.8213C25.3739 16.2666 25.6244 16.8703 25.625 17.5V22.25H23.25V24.625H25.625V29.375H23.25C22.3055 29.3759 21.3999 29.7516 20.732 30.4195C20.0641 31.0874 19.6884 31.993 19.6875 32.9375V35.3125H22.0625V32.9375C22.0625 32.6226 22.1876 32.3205 22.4103 32.0978C22.633 31.8751 22.9351 31.75 23.25 31.75H25.625V36.5C25.6244 37.1297 25.3739 37.7334 24.9287 38.1787C24.4834 38.6239 23.8797 38.8744 23.25 38.875Z" fill="#F2E7E7"/>
</g>
<defs>
<clipPath id="clip0_24_55">
<rect width="456" height="54" fill="white"/>
</clipPath>
</defs>
</svg>
