<svg width="853" height="797" viewBox="0 0 853 797" fill="none" xmlns="http://www.w3.org/2000/svg">
<path d="M825.685 0.0593845H27.315C20.0754 0.0750738 13.1369 2.95834 8.0177 8.07823C2.89854 13.1981 0.0156871 20.1377 0 27.3782V653.812C0 668.837 12.2917 681.131 27.315 681.131H533.89V681.012H825.685C840.708 681.012 853 668.748 853 653.693V27.3189C852.961 20.0855 850.071 13.1594 844.957 8.04459C839.842 2.92974 832.917 0.0389949 825.685 0V0.0593845ZM814.581 533.431C814.581 545.665 804.546 555.701 792.313 555.701H57.4803C51.5793 555.686 45.9246 553.334 41.752 549.161C37.5794 544.988 35.2283 539.332 35.2126 533.431V58.3198C35.2126 46.056 45.2182 36.049 57.4803 36.049H792.313C804.546 36.049 814.581 46.056 814.581 58.3198V533.431ZM575.753 781.023C574.773 779.983 573.912 779.389 573.734 779.181L573.437 779.063L573.199 778.944C573.199 778.944 571.834 778.35 569.637 777.103C566.46 775.44 561.264 772.827 556.454 770.065C552.312 767.781 548.404 765.096 544.786 762.048C544.051 760.424 543.474 758.734 543.064 757C540.599 747.498 538.313 728.79 536.532 711.27H313.855C313.172 718.1 312.43 725.167 311.599 731.819C310.761 738.946 309.652 746.038 308.274 753.08C307.699 756.035 306.874 758.935 305.809 761.751L305.601 762.137C302.811 764.988 295.507 769.442 289.183 772.827C286.006 774.668 282.948 776.093 280.78 777.162L277.218 778.944L277.039 779.092L276.802 779.211C276.505 779.449 275.674 779.805 274.724 780.993C273.468 782.563 272.768 784.506 272.734 786.516C272.823 786.575 272.645 787.615 272.586 789.129C272.586 790.406 272.794 792.633 274.605 794.623C276.386 796.404 278.851 796.998 281.048 796.998H569.518C571.87 797.046 574.152 796.196 575.901 794.623C577.298 793.129 578.045 791.143 577.98 789.099C577.92 787.615 577.683 786.546 577.742 786.486C577.734 784.486 577.066 782.545 575.842 780.963L575.753 781.023Z" fill="#8D7B98" fill-opacity="0.9"/>
</svg>
